<svg xmlns="http://www.w3.org/2000/svg" height="108.05" width="123" viewBox="0 0 32.544 28.588"><path d="M10.115 6.02v14.218l7.873-4.317V1.475z" fill="#b8b8bb" fill-rule="evenodd" stroke="#83838a" stroke-linejoin="round" stroke-width=".268"/><path d="m.265 2.228 9.85 3.792v14.218l-9.85-8.53z" fill="#d2d2d4" fill-rule="evenodd" stroke="#83838a" stroke-linejoin="round" stroke-width=".265"/><path d="m10.115 6.02 7.873-4.545L3.548.332.265 2.228z" fill="#ececed" fill-rule="evenodd" stroke="#83838a" stroke-linejoin="round" stroke-width=".265"/><path d="m.265 11.707 9.85 8.531 7.873-4.317V1.475L3.392.271.265 2.077z" fill="none" stroke="#000000" stroke-width=".529"/><path d="m22.429 3.65-8.208 4.74 14.827 10.397 3.231-1.865z" fill="#ececed" fill-rule="evenodd" stroke="#83838a" stroke-width=".268"/><path d="M14.22 8.391v14.218l14.777 5.687.051-9.509z" fill="#d2d2d4" fill-rule="evenodd" stroke="#83838a" stroke-width=".265"/><path d="m29.048 18.787 3.231-1.865V26.4l-3.282 1.897z" fill="#b8b8bb" fill-rule="evenodd" stroke="#83838a" stroke-width=".265"/><path d="m22.429 3.65-8.208 4.74v14.22l14.776 5.686 3.282-1.896v-9.478z" fill="none" stroke="#000000" stroke-width=".529"/></svg>