<svg xmlns="http://www.w3.org/2000/svg" height="137.556" width="128" viewBox="0 0 33.867 36.395">
	<g fill="#4286c5" font-family="sans-serif" font-size="3.175" stroke-width=".265" style="line-height: 0%;">
		<path d="M.187 12.17v14.365l16.587 9.576-.002-14.363-4.146-7.183-8.292-4.788z" fill="#d2d2d4" />
		<path d="m20.956 14.565 8.292-4.788 4.145 2.394.001 14.364-16.587 9.577.001-14.365z" fill="#b8b8bb" />
		<path d="m4.333 9.777 8.292 4.787h8.295l8.292-4.787v-4.79L20.92.202h-8.294L4.334 4.988zm8.524 4.788h8.293l-4.148 7.182z" fill="#ececed" />
		<path d="m4.393 4.806.002 4.789-4.148 2.393zm24.82 4.788-.001-4.788 4.146 7.182z" fill="#d2d2d4" />
		<path d="m208.47 90.288 4.345-4.346 4.346 8.693z" fill="none" stroke="#83838a" stroke-linejoin="round" stroke-width=".264" transform="matrix(.95417 .55084 -.95417 .55084 -100.053 -150.003)" />
		<path d="m199.734 94.678 13.037 13.037h17.383L217.117 94.68l-8.692-4.347h-8.69zm13.085-8.75v-8.69h4.345l13.037 13.037.001 17.382-13.037-13.037zm-13.085 4.405h8.69l4.347-4.346v-8.69l-4.347-4.347h-8.69l-4.346 4.346v8.69z" fill="none" stroke="#83838a" stroke-linejoin="round" stroke-width=".257" transform="matrix(.95417 .55084 -.95417 .55084 -100.053 -150.003)" />
		<path d="m212.855 107.631-13.037-13.037-4.346-8.692v-8.69l4.346-4.347h8.69l8.692 4.346 13.038 13.038v17.383z" fill="none" stroke="#000000" stroke-width=".514" transform="matrix(.95417 .55084 -.95417 .55084 -100.053 -150.003)" />
 
	</g>
</svg>
